<svg width="310" height="347" viewBox="0 0 310 347" fill="none" xmlns="http://www.w3.org/2000/svg">
    <g clip-path="url(#clip0_32_1259)">
        <path d="M91.8605 130.231L5.50212 114.133L4.37981 113.924C3.80828 113.817 3.21333 113.851 2.66336 114.023C2.11339 114.195 1.63075 114.498 1.27092 114.896C0.911102 115.295 0.688708 115.773 0.629334 116.276C0.56996 116.778 0.676022 117.285 0.935297 117.738L35.2231 177.911C35.445 178.297 35.7711 178.632 36.174 178.887C36.577 179.142 37.0449 179.31 37.5384 179.376C38.0334 179.442 38.5397 179.404 39.0136 179.263C39.4875 179.123 39.9148 178.885 40.2584 178.57L64.0739 156.869C64.2433 156.711 64.4488 156.585 64.6774 156.498C64.906 156.412 65.1529 156.368 65.4023 156.368C65.7415 156.364 66.0755 156.439 66.3687 156.587C66.6619 156.734 66.9032 156.947 67.0668 157.204L71.9449 165.001C72.2563 165.521 72.76 165.936 73.3758 166.18C73.9917 166.424 74.6842 166.483 75.3432 166.347L75.3675 166.342C76.0345 166.22 76.6346 165.908 77.0714 165.456C77.5082 165.003 77.7563 164.437 77.7757 163.848L78.7529 145.849C78.7645 145.625 78.8294 145.405 78.9436 145.203C79.0661 145.003 79.2324 144.825 79.4332 144.68L93.1726 134.934C93.6242 134.613 93.9622 134.19 94.1479 133.711C94.3336 133.232 94.3594 132.718 94.2225 132.227C94.0855 131.736 93.7913 131.289 93.3736 130.936C92.9558 130.583 92.4314 130.339 91.8605 130.231H91.8605ZM92.388 134.105L78.6486 143.852C78.4696 143.976 78.3074 144.118 78.165 144.274L5.34604 115.735C5.28181 115.709 5.21481 115.689 5.146 115.674C4.86512 115.612 4.56778 115.636 4.30539 115.743C4.04301 115.85 3.83207 116.032 3.70907 116.259C3.58607 116.486 3.55874 116.743 3.63181 116.986C3.70487 117.229 3.87374 117.441 4.1092 117.588L63.9827 155.595C63.6789 155.731 63.4045 155.912 63.1718 156.129L39.3566 177.829C39.1499 178.017 38.8938 178.159 38.6101 178.243C38.3263 178.327 38.0232 178.351 37.7266 178.312C37.43 178.274 37.1486 178.173 36.9064 178.021C36.6641 177.868 36.4682 177.666 36.3352 177.434L2.0474 117.262C1.89412 116.99 1.83228 116.686 1.86894 116.386C1.90559 116.085 2.03927 115.799 2.25474 115.561C2.47021 115.322 2.75881 115.141 3.08765 115.038C3.41649 114.934 3.77236 114.913 4.1147 114.975L5.26365 115.19L91.5951 131.283C91.9379 131.347 92.2528 131.493 92.5039 131.705C92.755 131.916 92.932 132.185 93.0147 132.479C93.0975 132.774 93.0826 133.083 92.9717 133.37C92.8609 133.658 92.6586 133.912 92.388 134.105V134.105Z"
              fill="#07959A"/>
        <path d="M110.269 344.885C102.522 343.077 93.095 335.557 95.1132 325.221C96.1142 320.095 99.956 316.777 103.94 314.631C109.45 311.663 115.725 310.545 121.772 310.263C128.748 309.937 135.715 310.758 142.638 311.627C149.473 312.485 156.308 313.253 163.173 313.722C190.037 315.543 217.065 313.809 243.323 308.58C249.803 307.287 256.245 305.771 262.648 304.031C268.716 302.488 274.648 300.572 280.399 298.298C288.012 295.139 300.392 288.993 299.382 277.611C298.847 271.576 294.734 266.756 290.586 263.398C285.57 259.337 279.766 256.666 274.081 254.072C247.639 242.004 221.145 230.08 194.677 218.086C188.5 215.286 182.282 212.562 176.287 209.281C170.674 206.21 165.087 202.642 160.57 197.709C156.625 193.4 153.099 187.616 153.224 181.15C153.327 175.788 156.151 171.237 159.609 167.836C168.172 159.416 180.284 156.002 191.232 154.214C204.833 151.993 218.63 152.004 232.24 149.859C243.229 148.127 254.971 144.783 263.908 136.947C267.688 133.759 270.362 129.722 271.628 125.291C272.769 120.649 272.214 115.817 270.04 111.459C267.619 106.462 263.758 102.482 259.697 99.222C255.033 95.5297 249.742 92.4754 244.01 90.165C231.939 85.1944 219.246 82.6063 206.882 78.7919C200.819 76.9211 194.694 74.8698 189.063 71.6565C184.293 68.9342 179.097 65.2648 176.443 59.8081C170.967 48.5496 184.03 41.8396 191.432 39.298C196.463 37.649 201.645 36.3671 206.924 35.4655C208.04 35.2584 207.566 33.3332 206.455 33.5393C200.899 34.4754 195.454 35.8495 190.187 37.6442C185.724 39.2469 181.118 41.353 177.612 44.9773C176.016 46.6137 174.836 48.5218 174.148 50.5779C173.46 52.634 173.281 54.7921 173.621 56.912C174.55 62.314 178.587 66.4764 182.378 69.4912C187.391 73.4781 193.108 76.0818 198.903 78.2042C205.008 80.4395 211.241 82.1815 217.473 83.8903C229.924 87.3047 242.935 90.3476 254.175 97.6133C262.039 102.696 272.72 112.226 270.105 124.038C268.944 129.281 265.418 133.381 261.613 136.396C257.145 139.833 251.992 142.54 246.405 144.387C221.496 153.05 194.082 146.855 169.814 158.621C161.563 162.621 151.541 169.905 151.461 181.366C151.419 187.319 154.18 192.779 157.594 197.095C161.683 202.264 166.978 206.086 172.366 209.281C178.039 212.522 183.929 215.469 190.005 218.107C196.644 221.12 203.283 224.129 209.924 227.134L250.226 245.398L270.25 254.472C276.362 257.242 282.63 259.898 288.187 263.964C292.737 267.293 298.112 272.754 297.648 279.535C297.279 284.921 293.139 288.807 289.356 291.406C284.457 294.77 278.954 296.947 273.479 298.755C267.164 300.841 260.745 302.571 254.313 304.127C241.139 307.309 227.693 309.583 214.103 310.928C200.546 312.277 186.889 312.717 173.254 312.244C166.364 312.005 159.486 311.528 152.618 310.816C145.538 310.079 138.489 308.943 131.391 308.44C124.971 307.984 118.489 308.09 112.167 309.554C106.888 310.777 101.311 312.956 97.3034 317.208C94.3498 320.454 92.8707 324.521 93.1445 328.643C93.4158 332.758 95.1132 336.706 98.016 339.975C100.965 343.315 105.108 345.718 109.8 346.812C110.907 347.07 111.38 345.145 110.269 344.885L110.269 344.885Z"
              fill="#E6E6E6"/>
        <path d="M310 345.797H108.731V347H310V345.797Z" fill="#7C7C7C"/>
        <path d="M293.874 289.14C301.135 289.14 307.022 284.053 307.022 277.777C307.022 271.502 301.135 266.415 293.874 266.415C286.612 266.415 280.726 271.502 280.726 277.777C280.726 284.053 286.612 289.14 293.874 289.14Z"
              fill="#E6E6E6"/>
        <path d="M269.887 128.994C277.148 128.994 283.035 123.906 283.035 117.631C283.035 111.356 277.148 106.269 269.887 106.269C262.625 106.269 256.738 111.356 256.738 117.631C256.738 123.906 262.625 128.994 269.887 128.994Z"
              fill="#E6E6E6"/>
        <path d="M240.159 0.475292L203.651 14.1906C202.038 14.7982 200.771 15.9337 200.126 17.348C199.481 18.7623 199.512 20.3399 200.211 21.7347L211.548 44.27C212.251 45.6634 213.565 46.7589 215.202 47.3161C216.838 47.8733 218.664 47.8468 220.278 47.2423L256.786 33.527C258.399 32.9194 259.666 31.7839 260.311 30.3696C260.956 28.9553 260.925 27.3777 260.226 25.9829L248.889 3.44765C248.186 2.05424 246.872 0.958749 245.236 0.401517C243.599 -0.155715 241.773 -0.129182 240.159 0.475292V0.475292ZM241.671 3.47999C241.889 3.39885 242.119 3.3418 242.353 3.31018L230.01 23.4347L204.659 17.4395C204.817 17.3435 204.985 17.2617 205.162 17.1953L241.671 3.47999ZM255.275 30.5223L218.766 44.2376C218.075 44.4967 217.292 44.508 216.591 44.2692C215.889 44.0304 215.326 43.5609 215.025 42.9637L203.79 20.6308L230.474 26.9412C230.89 27.0395 231.331 27.0125 231.727 26.8647C232.122 26.717 232.448 26.4572 232.649 26.1283L245.569 5.06421L256.749 27.2891C257.049 27.8869 257.062 28.563 256.785 29.1691C256.509 29.7753 255.966 30.2619 255.275 30.5223V30.5223Z"
              fill="#E6E6E6"/>
        <path d="M199.21 195.95C217.57 195.95 232.453 183.088 232.453 167.223C232.453 151.357 217.57 138.495 199.21 138.495C180.851 138.495 165.968 151.357 165.968 167.223C165.968 183.088 180.851 195.95 199.21 195.95Z"
              fill="#07959A"/>
        <path d="M193.972 346.151H184.804C183.734 346.15 182.708 345.782 181.951 345.128C181.194 344.474 180.768 343.587 180.767 342.662V276.632C180.768 275.707 181.194 274.821 181.951 274.167C182.708 273.513 183.734 273.145 184.804 273.144H193.972C195.043 273.145 196.069 273.513 196.826 274.167C197.583 274.821 198.008 275.707 198.01 276.632V342.662C198.008 343.587 197.583 344.474 196.826 345.128C196.069 345.782 195.043 346.15 193.972 346.151Z"
              fill="#2F2E41"/>
        <path d="M212.105 346.151H202.937C201.866 346.15 200.84 345.782 200.083 345.128C199.326 344.474 198.901 343.587 198.899 342.662V276.632C198.901 275.707 199.326 274.821 200.083 274.167C200.84 273.513 201.866 273.145 202.937 273.144H212.105C213.175 273.145 214.201 273.513 214.958 274.167C215.715 274.821 216.141 275.707 216.142 276.632V342.662C216.141 343.587 215.715 344.474 214.958 345.128C214.201 345.782 213.175 346.15 212.105 346.151Z"
              fill="#2F2E41"/>
        <path d="M250.096 269.728C249.693 269.728 249.293 269.675 248.907 269.573C248.4 269.44 247.928 269.221 247.519 268.929C247.11 268.637 246.772 268.278 246.525 267.873L210.707 209.547C210.458 209.143 210.305 208.7 210.254 208.243C210.204 207.787 210.258 207.327 210.413 206.889C210.569 206.451 210.822 206.044 211.16 205.691C211.497 205.337 211.912 205.045 212.381 204.83L220.478 201.116C220.947 200.901 221.459 200.768 221.987 200.725C222.515 200.681 223.048 200.728 223.555 200.862C224.062 200.996 224.533 201.216 224.942 201.507C225.351 201.799 225.689 202.158 225.938 202.563L261.755 260.888C262.004 261.293 262.157 261.736 262.208 262.192C262.258 262.648 262.204 263.108 262.049 263.546C261.894 263.984 261.64 264.392 261.302 264.745C260.965 265.098 260.55 265.391 260.081 265.605L251.983 269.319C251.403 269.587 250.754 269.728 250.096 269.728V269.728Z"
              fill="#07959A"/>
        <path d="M175.532 215.967C175.048 215.967 174.567 215.891 174.114 215.743H174.114L102.635 192.408C102.139 192.246 101.685 192.001 101.298 191.688C100.912 191.374 100.601 190.997 100.384 190.58C100.166 190.162 100.045 189.712 100.029 189.254C100.013 188.796 100.102 188.34 100.289 187.912L103.523 180.5C103.905 179.636 104.667 178.937 105.643 178.557C106.62 178.177 107.73 178.147 108.732 178.473L180.21 201.802C181.209 202.131 182.018 202.789 182.458 203.631C182.899 204.473 182.936 205.432 182.561 206.298L179.322 213.71C179.029 214.374 178.51 214.945 177.833 215.348C177.157 215.751 176.354 215.967 175.532 215.967V215.967Z"
              fill="#07959A"/>
        <path d="M219.66 200.941H178.005C175.947 200.941 174.278 202.383 174.278 204.161V280.637C174.278 282.416 175.947 283.858 178.005 283.858H219.66C221.718 283.858 223.387 282.416 223.387 280.637V204.161C223.387 202.383 221.718 200.941 219.66 200.941Z"
              fill="#2F2E41"/>
        <path d="M174.223 215.492L144.847 207.752C143.931 207.51 143.158 206.973 142.688 206.252C142.217 205.531 142.086 204.681 142.322 203.879L145.751 192.202C145.887 191.741 146.139 191.311 146.489 190.944C146.84 190.577 147.28 190.282 147.779 190.079C148.277 189.877 148.821 189.772 149.372 189.773C149.923 189.775 150.466 189.881 150.964 190.085L180.1 202.054C181.023 202.356 181.77 202.963 182.177 203.741C182.584 204.518 182.618 205.404 182.271 206.203L179.031 213.616C178.68 214.415 177.977 215.062 177.076 215.413C176.175 215.765 175.149 215.794 174.223 215.492V215.492Z"
              fill="#2F2E41"/>
        <path d="M211.235 208.887L223.833 233.09C224.226 233.845 224.94 234.44 225.827 234.752C226.715 235.064 227.707 235.069 228.598 234.766L241.569 230.35C242.081 230.176 242.542 229.905 242.919 229.558C243.296 229.211 243.58 228.797 243.749 228.344C243.918 227.891 243.969 227.411 243.898 226.939C243.828 226.468 243.637 226.015 243.339 225.614L225.918 202.15C225.454 201.397 224.663 200.833 223.719 200.583C222.775 200.332 221.754 200.415 220.881 200.814L212.781 204.528C211.908 204.929 211.255 205.614 210.965 206.431C210.675 207.248 210.772 208.131 211.235 208.887V208.887Z"
              fill="#2F2E41"/>
        <path d="M91.8605 130.231L5.50212 114.133L4.37981 113.924C3.80828 113.817 3.21333 113.851 2.66336 114.023C2.11339 114.195 1.63075 114.498 1.27092 114.896C0.911102 115.295 0.688708 115.773 0.629334 116.276C0.56996 116.778 0.676022 117.285 0.935297 117.738L35.2231 177.911C35.445 178.297 35.7711 178.632 36.174 178.887C36.577 179.142 37.0449 179.31 37.5384 179.376C38.0334 179.442 38.5397 179.404 39.0136 179.263C39.4875 179.123 39.9148 178.885 40.2584 178.57L64.0739 156.869C64.2433 156.711 64.4488 156.585 64.6774 156.498C64.906 156.412 65.1529 156.368 65.4023 156.368C65.7415 156.364 66.0755 156.439 66.3687 156.587C66.6619 156.734 66.9032 156.947 67.0668 157.204L71.9449 165.001C72.2563 165.521 72.76 165.936 73.3758 166.18C73.9917 166.424 74.6842 166.483 75.3432 166.347L75.3675 166.342C76.0345 166.22 76.6346 165.908 77.0714 165.456C77.5082 165.003 77.7563 164.437 77.7757 163.848L78.7529 145.849C78.7645 145.625 78.8294 145.405 78.9436 145.203C79.0661 145.003 79.2324 144.825 79.4332 144.68L93.1726 134.934C93.6242 134.613 93.9622 134.19 94.1479 133.711C94.3336 133.232 94.3594 132.718 94.2225 132.227C94.0855 131.736 93.7913 131.289 93.3736 130.936C92.9558 130.583 92.4314 130.339 91.8605 130.231H91.8605ZM92.388 134.105L78.6486 143.852C78.4696 143.976 78.3074 144.118 78.165 144.274C78.0366 144.413 77.9258 144.563 77.8343 144.722C77.7385 144.885 77.663 145.056 77.609 145.232L77.6104 145.238C77.5534 145.421 77.5206 145.61 77.5125 145.8L76.5356 163.799C76.5274 164.153 76.3801 164.494 76.1179 164.766C75.8557 165.038 75.4942 165.225 75.0929 165.295L75.0807 165.298C74.6853 165.383 74.2683 165.35 73.8973 165.204C73.5263 165.058 73.223 164.809 73.0368 164.496L68.1573 156.693C67.9059 156.292 67.54 155.953 67.0944 155.708C66.6487 155.463 66.138 155.321 65.6108 155.294L65.6049 155.296C65.534 155.293 65.4633 155.29 65.394 155.292C64.9021 155.292 64.4176 155.396 63.9827 155.595C63.6789 155.731 63.4046 155.912 63.1718 156.129L39.3566 177.829C39.1499 178.017 38.8939 178.159 38.6101 178.243C38.3263 178.327 38.0232 178.351 37.7266 178.312C37.43 178.274 37.1487 178.173 36.9064 178.021C36.6642 177.868 36.4682 177.666 36.3352 177.434L2.0474 117.262C1.89412 116.99 1.83228 116.686 1.86894 116.386C1.90559 116.085 2.03927 115.799 2.25474 115.561C2.47021 115.322 2.75881 115.141 3.08765 115.038C3.41649 114.934 3.77236 114.913 4.1147 114.975L5.26365 115.19L91.5951 131.283C91.9379 131.347 92.2528 131.493 92.5039 131.705C92.755 131.916 92.932 132.185 93.0147 132.479C93.0975 132.774 93.0826 133.083 92.9717 133.37C92.8609 133.658 92.6586 133.912 92.388 134.105V134.105Z"
              fill="#7C7C7C"/>
        <path d="M78.4407 144.381L77.9275 145.358L77.6105 145.238L77.6091 145.232L4.84782 116.721L65.605 155.296L65.6109 155.294L65.7718 155.401L65.0392 156.267L63.9828 155.595L4.10931 117.588C3.87384 117.441 3.70497 117.229 3.63191 116.986C3.55884 116.743 3.58617 116.486 3.70917 116.259C3.83217 116.032 4.04311 115.85 4.3055 115.743C4.56788 115.636 4.86523 115.612 5.1461 115.674C5.21492 115.689 5.28191 115.709 5.34614 115.735L78.1651 144.274L78.4407 144.381Z"
              fill="#7C7C7C"/>
    </g>
    <defs>
        <clipPath id="clip0_32_1259">
            <rect width="309.387" height="347" fill="white" transform="translate(0.612305)"/>
        </clipPath>
    </defs>
</svg>
