<svg width="281" height="347" viewBox="0 0 281 347" fill="none" xmlns="http://www.w3.org/2000/svg">
    <path d="M82.8759 130.231L4.44124 114.133L3.42191 113.924C2.90283 113.817 2.36246 113.851 1.86296 114.023C1.36345 114.195 0.925086 114.498 0.598278 114.896C0.271471 115.295 0.069483 115.773 0.0155568 116.276C-0.0383695 116.778 0.0579605 117.285 0.293446 117.738L31.4352 177.911C31.6367 178.297 31.933 178.632 32.2989 178.887C32.6649 179.142 33.0898 179.31 33.538 179.376C33.9877 179.442 34.4475 179.404 34.8779 179.263C35.3084 179.123 35.6964 178.885 36.0085 178.57L57.6388 156.869C57.7927 156.711 57.9793 156.585 58.187 156.498C58.3946 156.412 58.6188 156.368 58.8454 156.368C59.1534 156.364 59.4568 156.439 59.723 156.587C59.9893 156.734 60.2085 156.947 60.3571 157.204L64.7876 165.001C65.0704 165.521 65.5279 165.936 66.0873 166.18C66.6466 166.424 67.2756 166.483 67.8741 166.347L67.8962 166.342C68.502 166.22 69.0471 165.908 69.4438 165.456C69.8405 165.003 70.0658 164.437 70.0835 163.848L70.971 145.849C70.9816 145.625 71.0405 145.405 71.1442 145.203C71.2555 145.003 71.4065 144.825 71.5889 144.68L84.0676 134.934C84.4778 134.613 84.7848 134.19 84.9534 133.711C85.1221 133.232 85.1456 132.718 85.0212 132.227C84.8968 131.736 84.6296 131.289 84.2501 130.936C83.8707 130.583 83.3944 130.339 82.8759 130.231H82.8759ZM83.355 134.105L70.8763 143.852C70.7137 143.976 70.5663 144.118 70.437 144.274L4.29948 115.735C4.24115 115.709 4.1803 115.689 4.1178 115.674C3.8627 115.612 3.59263 115.636 3.35432 115.743C3.11601 115.85 2.92443 116.032 2.81271 116.259C2.701 116.486 2.67618 116.743 2.74254 116.986C2.8089 117.229 2.96228 117.441 3.17613 117.588L57.556 155.595C57.2801 155.731 57.0309 155.912 56.8195 156.129L35.1894 177.829C35.0018 178.017 34.7691 178.159 34.5114 178.243C34.2537 178.327 33.9784 178.351 33.709 178.312C33.4397 178.274 33.1841 178.173 32.9641 178.021C32.744 177.868 32.5661 177.666 32.4452 177.434L1.30351 117.262C1.16429 116.99 1.10812 116.686 1.14142 116.386C1.17472 116.085 1.29613 115.799 1.49182 115.561C1.68752 115.322 1.94964 115.141 2.24831 115.038C2.54698 114.934 2.87019 114.913 3.18113 114.975L4.22466 115.19L82.6348 131.283C82.9462 131.347 83.2322 131.493 83.4603 131.705C83.6883 131.916 83.8491 132.185 83.9242 132.479C83.9994 132.774 83.9859 133.083 83.8852 133.37C83.7845 133.658 83.6008 133.912 83.355 134.105Z"
          fill="#07959A"/>
    <path d="M99.5948 344.885C92.5593 343.077 83.9969 335.557 85.83 325.221C86.7392 320.095 90.2285 316.777 93.8465 314.631C98.851 311.663 104.55 310.545 110.043 310.263C116.378 309.937 122.707 310.758 128.995 311.627C135.202 312.485 141.41 313.253 147.645 313.722C172.044 315.543 196.592 313.809 220.441 308.58C226.327 307.287 232.177 305.771 237.993 304.031C243.504 302.488 248.892 300.572 254.115 298.298C261.029 295.139 272.273 288.993 271.357 277.611C270.87 271.576 267.135 266.756 263.367 263.398C258.812 259.337 253.54 256.666 248.377 254.072C224.361 242.004 200.298 230.08 176.259 218.086C170.648 215.286 165.001 212.562 159.555 209.281C154.458 206.21 149.384 202.642 145.281 197.709C141.698 193.4 138.496 187.616 138.609 181.15C138.702 175.788 141.267 171.237 144.408 167.836C152.185 159.416 163.186 156.002 173.129 154.214C185.482 151.993 198.014 152.004 210.375 149.859C220.356 148.127 231.02 144.783 239.137 136.947C242.571 133.759 244.999 129.722 246.149 125.291C247.185 120.649 246.681 115.817 244.707 111.459C242.508 106.462 239.001 102.482 235.313 99.222C231.076 95.5297 226.271 92.4754 221.064 90.165C210.102 85.1944 198.573 82.6063 187.344 78.7919C181.837 76.9211 176.274 74.8698 171.16 71.6565C166.827 68.9342 162.108 65.2648 159.697 59.8081C154.724 48.5496 166.589 41.8396 173.311 39.298C177.881 37.649 182.587 36.3671 187.382 35.4655C188.395 35.2584 187.965 33.3332 186.956 33.5393C181.91 34.4754 176.964 35.8495 172.181 37.6442C168.127 39.2469 163.944 41.353 160.759 44.9773C159.31 46.6137 158.238 48.5218 157.613 50.5779C156.989 52.634 156.826 54.7921 157.134 56.912C157.978 62.314 161.644 66.4764 165.088 69.4912C169.641 73.4781 174.833 76.0818 180.097 78.2042C185.641 80.4395 191.303 82.1815 196.962 83.8903C208.272 87.3047 220.088 90.3476 230.298 97.6133C237.439 102.696 247.141 112.226 244.766 124.038C243.711 129.281 240.509 133.381 237.053 136.396C232.995 139.833 228.315 142.54 223.24 144.387C200.617 153.05 175.718 146.855 153.677 158.621C146.183 162.621 137.081 169.905 137.007 181.366C136.969 187.319 139.477 192.779 142.578 197.095C146.292 202.264 151.101 206.086 155.994 209.281C161.147 212.522 166.496 215.469 172.015 218.107C178.045 221.12 184.075 224.129 190.107 227.134L226.711 245.398L244.898 254.472C250.448 257.242 256.142 259.898 261.188 263.964C265.321 267.293 270.203 272.754 269.781 279.535C269.446 284.921 265.686 288.807 262.25 291.406C257.801 294.77 252.803 296.947 247.83 298.755C242.094 300.841 236.264 302.571 230.423 304.127C218.457 307.309 206.245 309.583 193.902 310.928C181.589 312.277 169.185 312.717 156.801 312.244C150.544 312.005 144.296 311.528 138.058 310.816C131.628 310.079 125.226 308.943 118.779 308.44C112.949 307.984 107.061 308.09 101.319 309.554C96.5243 310.777 91.4588 312.956 87.8193 317.208C85.1366 320.454 83.7933 324.521 84.0419 328.643C84.2884 332.758 85.83 336.706 88.4665 339.975C91.1445 343.315 94.9073 345.718 99.1696 346.812C100.175 347.07 100.605 345.145 99.595 344.885L99.5948 344.885Z"
          fill="#E6E6E6"/>
    <path d="M281 345.797H98.1987V347H281V345.797Z" fill="#7C7C7C"/>
    <path d="M266.354 289.14C272.949 289.14 278.296 284.053 278.296 277.777C278.296 271.502 272.949 266.415 266.354 266.415C259.759 266.415 254.412 271.502 254.412 277.777C254.412 284.053 259.759 289.14 266.354 289.14Z"
          fill="#E6E6E6"/>
    <path d="M244.567 128.994C251.163 128.994 256.509 123.906 256.509 117.631C256.509 111.356 251.163 106.269 244.567 106.269C237.972 106.269 232.625 111.356 232.625 117.631C232.625 123.906 237.972 128.994 244.567 128.994Z"
          fill="#E6E6E6"/>
    <path d="M217.568 0.475292L184.409 14.1906C182.945 14.7982 181.793 15.9337 181.208 17.348C180.622 18.7623 180.65 20.3399 181.285 21.7347L191.581 44.27C192.22 45.6634 193.413 46.7589 194.9 47.3161C196.386 47.8733 198.044 47.8468 199.51 47.2423L232.669 33.527C234.134 32.9194 235.285 31.7839 235.871 30.3696C236.456 28.9553 236.428 27.3777 235.793 25.9829L225.497 3.44765C224.858 2.05424 223.665 0.958749 222.178 0.401517C220.692 -0.155715 219.034 -0.129182 217.568 0.475292ZM218.941 3.47999C219.139 3.39885 219.347 3.3418 219.56 3.31018L208.35 23.4347L185.325 17.4395C185.468 17.3435 185.621 17.2617 185.782 17.1953L218.941 3.47999ZM231.296 30.5223L198.138 44.2376C197.509 44.4967 196.799 44.508 196.162 44.2692C195.525 44.0304 195.013 43.5609 194.739 42.9637L184.536 20.6308L208.771 26.9412C209.148 27.0395 209.55 27.0125 209.909 26.8647C210.268 26.717 210.564 26.4572 210.747 26.1283L222.481 5.06421L232.635 27.2891C232.907 27.8869 232.919 28.563 232.668 29.1691C232.417 29.7753 231.924 30.2619 231.296 30.5223Z"
          fill="#E6E6E6"/>
    <path d="M180.376 195.95C197.051 195.95 210.569 183.088 210.569 167.223C210.569 151.357 197.051 138.495 180.376 138.495C163.701 138.495 150.184 151.357 150.184 167.223C150.184 183.088 163.701 195.95 180.376 195.95Z"
          fill="#07959A"/>
    <path d="M175.619 346.151H167.292C166.32 346.15 165.388 345.782 164.7 345.128C164.013 344.474 163.626 343.587 163.625 342.662V276.632C163.626 275.707 164.013 274.821 164.7 274.167C165.388 273.513 166.32 273.145 167.292 273.144H175.619C176.591 273.145 177.523 273.513 178.21 274.167C178.898 274.821 179.284 275.707 179.286 276.632V342.662C179.284 343.587 178.898 344.474 178.21 345.128C177.523 345.782 176.591 346.15 175.619 346.151Z"
          fill="#2F2E41"/>
    <path d="M192.087 346.151H183.761C182.789 346.15 181.856 345.782 181.169 345.128C180.482 344.474 180.095 343.587 180.094 342.662V276.632C180.095 275.707 180.482 274.821 181.169 274.167C181.856 273.513 182.789 273.145 183.761 273.144H192.087C193.06 273.145 193.992 273.513 194.679 274.167C195.366 274.821 195.753 275.707 195.754 276.632V342.662C195.753 343.587 195.366 344.474 194.679 345.128C193.992 345.782 193.06 346.15 192.087 346.151Z"
          fill="#2F2E41"/>
    <path d="M226.592 269.728C226.226 269.728 225.863 269.675 225.513 269.573C225.052 269.44 224.623 269.221 224.252 268.929C223.881 268.637 223.574 268.278 223.349 267.873L190.818 209.547C190.592 209.143 190.452 208.7 190.406 208.243C190.36 207.787 190.41 207.327 190.551 206.889C190.692 206.451 190.922 206.044 191.229 205.691C191.535 205.337 191.912 205.045 192.338 204.83L199.692 201.116C200.118 200.901 200.583 200.768 201.063 200.725C201.542 200.681 202.026 200.728 202.486 200.862C202.947 200.996 203.375 201.216 203.746 201.507C204.118 201.799 204.425 202.158 204.651 202.563L237.182 260.888C237.407 261.293 237.547 261.736 237.593 262.192C237.639 262.648 237.59 263.108 237.449 263.546C237.308 263.984 237.077 264.392 236.77 264.745C236.464 265.098 236.087 265.391 235.662 265.605L228.307 269.319C227.779 269.587 227.19 269.728 226.592 269.728Z"
          fill="#07959A"/>
    <path d="M158.871 215.967C158.431 215.967 157.994 215.891 157.582 215.743H157.582L92.6614 192.408C92.2111 192.246 91.7987 192.001 91.4479 191.688C91.0971 191.374 90.8148 190.997 90.617 190.58C90.4192 190.162 90.3098 189.712 90.2952 189.254C90.2805 188.796 90.3608 188.34 90.5316 187.912L93.4685 180.5C93.8152 179.636 94.5075 178.937 95.3941 178.557C96.2808 178.177 97.2895 178.147 98.1996 178.473L163.119 201.802C164.027 202.131 164.761 202.789 165.161 203.631C165.561 204.473 165.595 205.432 165.255 206.298L162.312 213.71C162.046 214.374 161.575 214.945 160.96 215.348C160.346 215.751 159.617 215.967 158.871 215.967Z"
          fill="#07959A"/>
    <path d="M198.949 200.941H161.116C159.247 200.941 157.731 202.383 157.731 204.161V280.637C157.731 282.416 159.247 283.858 161.116 283.858H198.949C200.819 283.858 202.334 282.416 202.334 280.637V204.161C202.334 202.383 200.819 200.941 198.949 200.941Z"
          fill="#2F2E41"/>
    <path d="M157.682 215.492L131.001 207.752C130.169 207.51 129.467 206.973 129.039 206.252C128.612 205.531 128.494 204.681 128.708 203.879L131.822 192.202C131.945 191.741 132.174 191.311 132.493 190.944C132.811 190.577 133.211 190.282 133.664 190.079C134.116 189.877 134.61 189.772 135.111 189.773C135.611 189.775 136.104 189.881 136.556 190.085L163.019 202.054C163.858 202.356 164.536 202.963 164.906 203.741C165.275 204.518 165.306 205.404 164.991 206.203L162.048 213.616C161.73 214.415 161.091 215.062 160.273 215.413C159.454 215.765 158.522 215.794 157.682 215.492Z"
          fill="#2F2E41"/>
    <path d="M191.297 208.887L202.739 233.09C203.096 233.845 203.745 234.44 204.551 234.752C205.357 235.064 206.258 235.069 207.067 234.766L218.848 230.35C219.313 230.176 219.732 229.905 220.074 229.558C220.417 229.211 220.674 228.797 220.828 228.344C220.982 227.891 221.028 227.411 220.964 226.939C220.899 226.468 220.726 226.015 220.456 225.614L204.633 202.15C204.212 201.397 203.493 200.833 202.636 200.583C201.778 200.332 200.851 200.415 200.058 200.814L192.702 204.528C191.909 204.929 191.315 205.614 191.052 206.431C190.788 207.248 190.877 208.131 191.297 208.887Z"
          fill="#2F2E41"/>
    <path d="M82.8759 130.231L4.44124 114.133L3.42191 113.924C2.90283 113.817 2.36246 113.851 1.86296 114.023C1.36345 114.195 0.925086 114.498 0.598278 114.896C0.271471 115.295 0.069483 115.773 0.0155568 116.276C-0.0383695 116.778 0.0579605 117.285 0.293446 117.738L31.4352 177.911C31.6367 178.297 31.933 178.632 32.2989 178.887C32.6649 179.142 33.0898 179.31 33.538 179.376C33.9877 179.442 34.4475 179.404 34.8779 179.263C35.3084 179.123 35.6964 178.885 36.0085 178.57L57.6388 156.869C57.7927 156.711 57.9793 156.585 58.187 156.498C58.3946 156.412 58.6188 156.368 58.8454 156.368C59.1534 156.364 59.4568 156.439 59.723 156.587C59.9893 156.734 60.2085 156.947 60.3571 157.204L64.7876 165.001C65.0704 165.521 65.5279 165.936 66.0873 166.18C66.6466 166.424 67.2756 166.483 67.8741 166.347L67.8962 166.342C68.502 166.22 69.0471 165.908 69.4438 165.456C69.8405 165.003 70.0658 164.437 70.0835 163.848L70.971 145.849C70.9816 145.625 71.0405 145.405 71.1442 145.203C71.2555 145.003 71.4065 144.825 71.5889 144.68L84.0676 134.934C84.4778 134.613 84.7848 134.19 84.9534 133.711C85.1221 133.232 85.1456 132.718 85.0212 132.227C84.8968 131.736 84.6296 131.289 84.2501 130.936C83.8707 130.583 83.3944 130.339 82.8759 130.231H82.8759ZM83.355 134.105L70.8763 143.852C70.7137 143.976 70.5663 144.118 70.437 144.274C70.3204 144.413 70.2197 144.563 70.1367 144.722C70.0496 144.885 69.981 145.056 69.9321 145.232L69.9333 145.238C69.8816 145.421 69.8518 145.61 69.8444 145.8L68.9572 163.799C68.9497 164.153 68.8159 164.494 68.5778 164.766C68.3396 165.038 68.0113 165.225 67.6468 165.295L67.6358 165.298C67.2766 165.383 66.8978 165.35 66.5609 165.204C66.2239 165.058 65.9485 164.809 65.7793 164.496L61.3476 156.693C61.1193 156.292 60.787 155.953 60.3822 155.708C59.9774 155.463 59.5136 155.321 59.0348 155.294L59.0294 155.296C58.9649 155.293 58.9008 155.29 58.8378 155.292C58.391 155.292 57.951 155.396 57.556 155.595C57.2801 155.731 57.0309 155.912 56.8195 156.129L35.1894 177.829C35.0018 178.017 34.7692 178.159 34.5114 178.243C34.2537 178.327 33.9784 178.351 33.709 178.312C33.4397 178.274 33.1841 178.173 32.9641 178.021C32.7441 177.868 32.5661 177.666 32.4453 177.434L1.30351 117.262C1.16429 116.99 1.10812 116.686 1.14142 116.386C1.17472 116.085 1.29613 115.799 1.49182 115.561C1.68752 115.322 1.94964 115.141 2.24831 115.038C2.54698 114.934 2.87019 114.913 3.18113 114.975L4.22466 115.19L82.6348 131.283C82.9462 131.347 83.2322 131.493 83.4603 131.705C83.6883 131.916 83.8491 132.185 83.9242 132.479C83.9994 132.774 83.9859 133.083 83.8852 133.37C83.7845 133.658 83.6008 133.912 83.355 134.105Z"
          fill="#7C7C7C"/>
    <path d="M70.6872 144.381L70.2212 145.358L69.9332 145.238L69.932 145.232L3.84683 116.721L59.0293 155.296L59.0347 155.294L59.1808 155.401L58.5155 156.267L57.556 155.595L3.17608 117.588C2.96222 117.441 2.80885 117.229 2.74249 116.986C2.67613 116.743 2.70095 116.486 2.81266 116.259C2.92437 116.032 3.11596 115.85 3.35427 115.743C3.59258 115.636 3.86264 115.612 4.11775 115.674C4.18025 115.689 4.2411 115.709 4.29943 115.735L70.437 144.274L70.6872 144.381Z"
          fill="#7C7C7C"/>
</svg>
