<svg width="350" height="350" viewBox="0 0 350 350" fill="none" xmlns="http://www.w3.org/2000/svg">
<g clip-path="url(#clip0_328_2218)">
<path d="M132.621 104.202L106.695 135.613L136.61 239.316V291.168L138.105 294.16L216.88 295.655L218.376 292.165V266L218.875 239.815L249.288 139.103L227.849 104.202H132.621Z" fill="black"/>
<path d="M148 270L137 270V273V291.491L138.469 294.497L215.811 296L218 291.322V268L207 270H151.62H148Z" fill="black"/>
<path d="M136.61 264.245H162.536C162.536 240.382 163.893 217.299 152.583 195.442C141.21 173.459 115.592 157.2 122.006 128.632C124.678 116.734 138.995 108.103 150.57 113.044C158.081 116.25 164.313 123.382 165.343 131.624C166.445 140.452 162.728 153.559 174.502 156.571C179.588 157.871 185.489 155.495 187.606 150.53C191.033 142.493 187.014 132.895 191.373 124.644C200.426 107.508 225.199 107.555 232.204 126.638C242.576 154.9 212.092 176.12 200.749 197.436C189.808 218 192.45 241.819 192.45 264.245H218.376C218.658 230.171 245.642 217.17 264.23 193.447C288.506 162.467 295.195 116.96 278.891 80.7692C251.534 20.0415 171.934 -6.14515 115.669 32.9453C84.5312 54.5792 68.9968 87.626 66.9022 124.644C65.3071 152.834 79.6895 181.143 98.0055 201.41C115.785 221.082 136.365 234.754 136.61 264.245Z" fill="#07959A"/>
<path d="M165.527 264.245H189.459C189.459 241.355 186.812 218.614 197.694 197.436C208.693 176.031 239.632 154.893 229.212 126.639C223.579 111.367 200.453 110.777 193.979 125.642C190.287 134.119 194.898 144.453 189.72 152.56C186.574 157.484 180.456 161.232 174.501 159.704C153.672 154.36 170.13 126.313 152.563 116.945C141.971 111.296 127.934 116.681 125.171 128.632C118.518 157.414 144.826 174.12 156.294 196.439C167.269 217.799 165.527 240.992 165.527 264.245Z" fill="#07959A"/>
<path d="M136.61 267.236V286.182H218.376V267.236H136.61ZM136.61 290.171C136.708 325.97 179.858 351.484 207.108 321.99C215.318 313.103 217.872 301.929 218.376 290.171H136.61Z" fill="#44344F"/>
<path d="M136.61 267.236V286.182H218.376V267.236H136.61ZM136.61 290.171C136.708 325.97 179.858 351.484 207.108 321.99C215.318 313.103 217.872 301.929 218.376 290.171H136.61Z" fill="#44344F"/>
</g>
<defs>
<clipPath id="clip0_328_2218">
<rect width="350" height="350" fill="white"/>
</clipPath>
</defs>
</svg>
