<svg width="350" height="350" viewBox="0 0 350 350" fill="none" xmlns="http://www.w3.org/2000/svg">
<path d="M65.5028 87.9888V330.447H307.961V87.9888H65.5028Z" fill="black" fill-opacity="0.3"/>
<path d="M52.7933 78.2123V320.67H295.251V78.2123H52.7933Z" fill="#141414"/>
<path d="M95.8101 121.229V277.654C117.235 268.864 97.2941 216.348 99.7207 251.746C100.541 263.715 100.25 266.83 95.8101 277.654C156.913 278.249 195.531 277.654 201.397 277.654H95.8101V278.631L252.235 277.654V121.229H95.8101Z" fill="#07959A"/>
<path d="M200.419 151.076C176.017 156.715 185.939 193.944 210.196 188.167C234.019 182.493 224.442 145.525 200.419 151.076Z" fill="#8A1C10"/>
<path d="M95.8101 278.631L201.397 278.142C201.397 270.127 200.707 261.86 197.928 254.19C191.078 235.283 169.997 235.484 153.492 237.57C158.991 223.314 166.766 203.155 157.784 188.702C148.641 173.988 125.927 175.141 111.453 179.198C107.243 180.378 98.5164 180.01 95.8101 183.799C95.81 189.176 95.8101 204.174 95.8101 210.196L95.8101 278.631Z" fill="#8A1C10"/>
<path d="M101.676 78.2123L172.176 2.93297H174.022L103.631 78.2123H101.676Z" fill="#141414" stroke="#141414"/>
<path d="M245.391 78.2123L174.891 2.93297H173.045L243.436 78.2123H245.391Z" fill="#141414" stroke="#141414"/>
</svg>
