<svg width="350" height="350" viewBox="0 0 350 350" fill="none" xmlns="http://www.w3.org/2000/svg">
<path d="M65.0442 66.6113C43.8521 71.1326 39.6475 90.0118 36.5627 108.407C29.9751 147.691 22.5037 186.824 15.9137 226.106C13.3667 241.288 3.56318 266.285 16.5646 278.65C23.1956 284.956 32.6201 284.956 41.2979 284.956H84.6607H219.911C241.858 284.956 263 284.956 289.086 283.236C308.404 278.299 311.455 259.286 314.459 242.625C321.649 202.748 328.716 162.816 335.462 122.861C337.918 108.315 347.379 83.3348 334.322 71.642C327.655 65.6718 319.088 66.0767 310.767 66.0767H266.372L148 66.0767C142 66.0767 86 66.0767 65.0442 66.6113Z" fill="#07959A"/>
<path d="M79.4985 97.6007C66.4133 100.781 65.7456 116.104 63.929 126.991C59.0416 156.282 53.4603 185.455 48.6079 214.749C47.1207 223.727 40.2097 241.865 46.9078 249.632C54.7931 258.774 80.8101 256.563 91.8879 256.563L187.906 254.499C200.811 254.499 196.681 254.499 231.268 253.153C243.5 250 244.546 234.242 246.497 223.009C251.522 194.088 256.959 165.232 261.814 136.283C263.359 127.076 270.769 107.931 263.039 100.435C254.679 92.3283 228.345 94.9853 217.33 94.9853H124.926C110.778 94.9853 93.2567 94.2563 79.4985 97.6007Z" fill="#44344F"/>
<path d="M289.321 98.1113C286.012 100.135 284.18 107.781 288.381 109.849C293.126 112.184 311.23 112.068 315.781 109.411C319.039 107.509 321.934 99.915 317.546 97.6731C312.888 95.2931 293.769 95.392 289.321 98.1113Z" fill="#44344F"/>
<path d="M286.221 119.498C282.608 121.161 279.779 129.324 284.252 131.531C288.945 133.845 308.121 133.882 312.544 131.092C315.826 129.023 317.544 121.45 313.416 119.354C308.626 116.922 291.077 117.261 286.221 119.498Z" fill="#44344F"/>
<path d="M288.053 159.547C268.292 164.343 269.217 197.058 292.183 191.485C311.944 186.689 311.019 153.974 288.053 159.547Z" fill="#44344F"/>
<path d="M288.205 171.419C282.185 174.874 286.641 183.445 292.807 179.46C298.235 175.953 294.054 168.065 288.205 171.419Z" fill="#07959A"/>
<path d="M267.692 219.94C263.945 222.303 263.012 229.693 267.557 231.678C272.641 233.898 290.152 233.983 294.848 230.94C297.938 228.937 300.087 221.525 295.984 219.502C291.291 217.188 272.115 217.151 267.692 219.94Z" fill="#44344F"/>
<path d="M316.962 224.041L317.994 225.074L316.962 224.041Z" fill="#07959A"/>
<path d="M264.455 241.327C260.215 243.218 258.564 251.232 263.427 253.36C268.522 255.588 286.152 255.677 290.915 252.765C294.216 250.747 296.065 243.255 291.855 241.183C286.899 238.744 269.476 239.087 264.455 241.327Z" fill="#44344F"/>
</svg>
