<svg width="424" height="299" viewBox="0 0 424 299" fill="none" xmlns="http://www.w3.org/2000/svg">
    <path fill-rule="evenodd" clip-rule="evenodd"
          d="M60.5001 1.38629C49.2863 4.93254 40.9088 13.6276 37.54 25.2151C36.13 30.0651 35.985 42.0713 36.2275 133.585L36.5 236.5L39.38 242.734C44.2638 253.309 54.3788 261.041 65.8713 262.983C68.5888 263.441 56.0951 263.814 35.6138 263.883L0.72876 264L1.36626 268.75C3.43001 284.121 15.585 295.859 31.7575 298.1C35.8663 298.67 109.188 298.935 217.029 298.771L395.5 298.5L402.152 295.349C413.535 289.955 421.058 280.156 422.633 268.669L423.272 264L388.387 263.92C356.244 263.848 353.999 263.733 359.845 262.464C371.277 259.983 380.857 251.918 385.243 241.079L387.5 235.5L387.807 135C388.127 30.0076 388.019 26.8776 383.834 18.6751C380.743 12.615 374.308 6.2988 368.142 3.27005L362.5 0.50004L213.5 0.310039C95.6963 0.160039 63.6626 0.385039 60.5001 1.38629ZM366 8.83755C372.317 12.1188 376.852 16.6701 379.613 22.5001L381.98 27.5001V130.5V233.5L379.613 238.5C372.303 253.938 370.307 254.444 315.299 254.796L269.098 255.093L268.799 260.796L268.5 266.5L211.75 266.759L155 267.016V261.054V255.093L108.25 254.796L61.5001 254.5L56.3626 251.79C50.1026 248.489 44.6376 242.32 42.5538 236.205C40.2013 229.299 40.2013 31.7013 42.5538 24.7951C45.3963 16.4551 53.5626 9.14005 62.5001 6.93005C64.1501 6.52255 132.1 6.2588 213.5 6.3438L361.5 6.50005L366 8.83755ZM61.4613 15.8788C56.1788 18.2776 49.5688 25.8763 48.0963 31.2401C47.2313 34.3901 47.0013 60.7901 47.2138 132.528L47.5001 229.554L50.0551 234.518C57.4313 248.851 47.2751 248 211 248C374.104 248 363.732 248.82 371.684 235.293L374.5 230.5L374.769 132.566C375.069 23.5226 375.377 28.7826 368.287 21.4826C360.415 13.3776 374.504 14.0438 211 14.0438C72.0088 14.0438 65.3188 14.1263 61.4613 15.8788ZM227.54 23.5476C246.023 28.3451 259.919 41.1313 265.915 58.8588L268.5 66.5001L272.29 66.1876C316.767 62.5176 329.984 129.688 287.719 144.599C277.125 148.338 275.982 140.896 286.394 135.976C319.664 120.258 308.759 74.0663 271.918 74.6563C260.98 74.8326 261.573 75.2288 259.934 66.6288C251.835 24.1163 191.869 16.6638 172.898 55.8126C169.264 63.3101 169.145 63.3713 160.474 62.2088C116.191 56.2763 98.1626 117.528 139.018 135.103C144.374 137.408 146.148 140.281 143.714 142.715C140.594 145.835 127.97 139.455 120.884 131.178C94.1251 99.9164 115.283 54.0776 156.5 54.0113L164.5 53.9976L167.433 48.7488C178.668 28.6351 204.849 17.6576 227.54 23.5476ZM220.604 114.039C224.684 115.591 225.933 117.908 225.973 124L226.008 129.5L230.264 131.25C235.871 133.555 235.841 133.56 240.064 129.438C246.086 123.558 250.038 124.309 258.478 132.94C265.067 139.678 265.375 143.984 259.69 149.805L255.925 153.66L257.928 158.33C259.83 162.77 260.125 163 263.899 163C271.21 163 275.902 166.013 275.969 170.75C276 172.985 276.103 173 291.472 173H306.943L307.222 159.75L307.5 146.5H311H314.5L314.774 163.265L315.049 180.031L312.459 181.015C311.035 181.558 302.249 182 292.935 182C276.049 182 276 182.006 275.969 184.25C275.9 189.043 271.21 192 263.678 192C259.583 192 259.444 192.111 257.77 196.75L256.056 201.5L260.029 205.365C266.16 211.333 265.724 214.708 257.779 222.723C249.923 230.65 245.896 231.258 239.914 225.416L236.243 221.831L231.121 223.65L226 225.47V230.188C226 239.998 222.221 242.598 209.185 241.761C199.708 241.154 198 239.529 198 231.124V225.47L192.879 223.65L187.758 221.831L184.086 225.416C178.136 231.226 174.299 230.631 166.334 222.666C158.315 214.649 157.919 211.696 164.026 205.474L168.051 201.371L166.041 196.826L164.03 192.28L157.784 191.714C150.746 191.076 148 188.886 148 183.911V181.044L128.75 180.771L109.5 180.5V163.5V146.5H113H116.5L116.779 159.75L117.058 173H132.529H148V170.611C148 166.019 151.096 163.693 157.858 163.204L164.014 162.759L166.01 158.245L168.006 153.731L164.004 149.388C158.326 143.229 158.54 140.425 165.226 133.354C173.825 124.263 177.805 123.45 184.023 129.521L187.758 133.169L192.879 131.35L198 129.53V124.348C198 117.566 198.673 116.05 202.4 114.428C206.109 112.813 216.779 112.585 220.604 114.039ZM205.955 126.25C205.876 133.631 204.29 135.788 196.529 139.06C187.44 142.894 185.81 142.788 180.653 138.034L176.35 134.068L172.17 138.326L167.991 142.585L171.995 146.495C176.793 151.18 176.979 153.22 173.418 162.078C170.035 170.49 169.36 171.066 162.131 171.721L156 172.278V178.139V184L161.75 184.015C169.025 184.035 169.145 184.125 172.884 192.389C177.038 201.569 176.92 203.696 171.995 208.505L167.991 212.415L172.204 216.708L176.416 221L179.958 217.568C185.05 212.633 187.336 212.39 196.043 215.859C204.498 219.229 205.963 221.054 205.985 228.25L206 233H212H218V227.611C218 215.683 234.645 209.168 243.858 217.49L247.664 220.929L251.535 216.965L255.407 213L251.703 209.208C247.166 204.561 246.955 201.461 250.579 192.72C253.819 184.904 255.021 184 262.192 184H268V178V172H263.565C256.001 172 254.361 170.816 250.501 162.571C246.083 153.134 246.119 151.911 250.969 146.65L254.938 142.345L251.023 138.521L247.108 134.699L243.535 137.835C238.358 142.381 236.059 142.635 228.254 139.521C218.784 135.744 218 134.851 218 127.845V122H212H206L205.955 126.25ZM221.713 150.128C229.156 152.864 236.986 160.578 239.344 167.496C249.219 196.478 213.395 219.873 191.741 198.583C169.469 176.684 192.529 139.4 221.713 150.128ZM203.5 157.839C187.314 165.611 186.546 187.745 202.184 195.793C216.95 203.391 234.368 191.579 232.778 175.043C231.455 161.274 215.666 151.996 203.5 157.839ZM114 279.5V285H80.0001H46V279.5V274H80.0001H114V279.5ZM378 279.5V285H344H310V279.5V274H344H378V279.5Z"
          fill="#07959A"/>
</svg>
