<?xml version="1.0" standalone="no"?>
<!DOCTYPE svg PUBLIC "-//W3C//DTD SVG 20010904//EN"
        "http://www.w3.org/TR/2001/REC-SVG-20010904/DTD/svg10.dtd">
<svg version="1.0" xmlns="http://www.w3.org/2000/svg"
     width="500.000000pt" height="500.000000pt" viewBox="0 0 500.000000 500.000000"
     preserveAspectRatio="xMidYMid meet">
    <metadata>
        Created by potrace 1.14, written by Peter Selinger 2001-2017
    </metadata>
    <g transform="translate(0.000000,500.000000) scale(0.100000,-0.100000)"
       fill="#000000" stroke="none">
        <path d="M0 2500 l0 -2500 2500 0 2500 0 0 2500 0 2500 -2500 0 -2500 0 0
-2500z m4216 1593 c104 -54 178 -153 203 -271 15 -70 16 -2174 1 -2253 -28
-147 -129 -259 -275 -305 -34 -11 13 -13 314 -13 l354 -1 -6 -54 c-12 -116
-104 -242 -214 -294 l-58 -27 -2035 0 -2035 0 -59 30 c-113 58 -193 172 -209
298 l-7 47 353 1 c299 0 346 2 312 13 -108 34 -195 110 -242 211 l-28 60 -3
1145 c-3 1261 -6 1185 60 1284 40 61 104 112 175 142 l58 24 1640 -3 1640 -2
61 -32z"/>
        <path d="M824 4038 c-54 -18 -126 -80 -153 -133 l-26 -49 -3 -1140 c-3 -1291
-8 -1201 77 -1286 81 -81 72 -80 653 -80 l508 0 0 -65 0 -65 620 0 620 0 0 65
0 65 511 0 510 0 54 25 c60 29 108 78 136 139 18 39 19 94 19 1186 0 1092 -1
1147 -19 1186 -27 59 -75 109 -133 138 l-52 26 -1645 -1 c-1076 -1 -1657 -5
-1677 -11z m3301 -72 c57 -24 100 -63 128 -115 l27 -49 0 -1096 c0 -908 -2
-1102 -14 -1130 -19 -46 -72 -104 -120 -129 l-41 -22 -1615 0 -1615 0 -40 22
c-22 12 -54 36 -72 55 -67 69 -63 -6 -63 1205 l0 1098 30 52 c30 53 64 83 122
108 50 22 3221 22 3273 1z"/>
        <path d="M2384 3865 c-83 -22 -174 -70 -238 -124 -57 -48 -139 -152 -151 -192
-6 -17 -18 -19 -100 -19 -113 0 -196 -23 -281 -78 -116 -75 -190 -185 -222
-329 -44 -205 67 -434 260 -533 73 -38 100 -35 106 8 3 17 -10 28 -69 57 -129
66 -202 158 -235 302 -28 123 12 263 107 367 99 109 265 160 405 125 55 -14
61 -10 104 79 63 127 193 228 345 267 265 68 553 -120 611 -397 8 -40 17 -75
20 -77 2 -3 53 -5 112 -5 94 -1 114 -4 163 -27 76 -36 129 -86 170 -161 32
-59 34 -69 34 -158 0 -88 -3 -101 -33 -162 -40 -81 -99 -136 -187 -173 -53
-23 -65 -32 -65 -51 0 -36 30 -47 81 -29 207 73 330 303 275 512 -52 196 -207
319 -411 329 l-79 3 -16 58 c-53 191 -222 357 -416 408 -72 19 -221 19 -290 0z"/>
        <path d="M2375 2855 c-21 -20 -25 -34 -25 -83 l0 -60 -55 -22 -55 -22 -46 41
c-72 63 -100 59 -186 -27 -86 -86 -90 -114 -27 -186 l41 -47 -19 -52 -20 -52
-66 -5 c-75 -6 -103 -25 -113 -76 l-6 -34 -169 0 -169 0 0 138 c0 94 -4 142
-12 150 -17 17 -55 15 -62 -4 -12 -31 -7 -339 6 -352 9 -9 69 -12 209 -12
l197 0 6 -34 c10 -50 37 -69 113 -75 l66 -6 20 -52 20 -53 -42 -45 c-33 -36
-41 -52 -41 -82 0 -33 8 -45 69 -105 88 -85 114 -89 185 -27 l47 41 52 -19 52
-20 5 -66 c8 -99 19 -107 145 -107 130 0 145 10 145 103 l0 62 58 26 58 26 48
-44 c38 -34 56 -43 84 -43 31 0 45 9 104 68 60 60 68 73 68 106 0 30 -8 46
-43 83 l-43 46 20 53 21 54 53 0 c80 0 121 28 122 83 l0 27 205 0 205 0 10 26
c6 14 10 92 10 173 0 161 -7 186 -51 179 l-24 -3 -3 -147 -3 -148 -174 0 -175
0 0 30 c0 21 -9 39 -26 55 -22 21 -37 25 -88 25 l-61 0 -22 57 -22 57 45 48
c24 26 44 57 44 68 0 35 -26 75 -85 129 -74 67 -103 68 -171 8 l-49 -44 -52
23 c-53 23 -53 24 -53 68 0 53 -14 94 -38 112 -11 9 -50 13 -115 14 -91 0
-100 -2 -122 -25z m193 -115 c2 -35 8 -71 15 -79 19 -23 139 -73 176 -73 26 0
43 9 77 43 l44 43 50 -49 49 -49 -44 -47 c-32 -34 -45 -57 -45 -77 0 -38 64
-168 89 -182 11 -5 45 -10 75 -10 l56 0 0 -70 0 -70 -52 0 c-79 0 -98 -14
-135 -100 -17 -41 -32 -85 -32 -96 -1 -12 19 -44 43 -71 l45 -50 -49 -48 -50
-49 -45 44 c-35 35 -52 44 -77 43 -44 -2 -164 -57 -177 -82 -6 -11 -11 -45
-11 -75 l0 -56 -70 0 -70 0 0 45 c0 84 -17 106 -109 142 -94 37 -112 35 -174
-25 l-37 -36 -50 49 -49 49 44 47 c26 28 45 58 45 71 0 33 -57 169 -78 184
-10 8 -44 14 -79 14 l-63 0 0 70 0 70 63 0 c36 0 71 6 81 13 23 17 76 143 76
181 0 22 -12 42 -45 76 l-45 46 50 49 50 49 42 -41 c24 -22 53 -44 64 -47 25
-8 173 48 192 72 6 9 12 43 12 77 0 34 3 65 7 69 4 4 37 6 73 4 l65 -3 3 -65z"/>
        <path d="M2364 2472 c-247 -119 -231 -476 25 -573 74 -28 176 -23 245 12 181
90 232 319 106 477 -59 73 -125 105 -230 110 -77 3 -90 1 -146 -26z m231 -66
c54 -25 100 -71 122 -123 19 -46 16 -140 -6 -188 -20 -46 -79 -101 -127 -121
-73 -31 -192 -7 -252 49 -82 76 -93 221 -25 309 73 94 185 123 288 74z"/>
        <path d="M700 1075 l0 -55 360 0 360 0 0 55 0 55 -360 0 -360 0 0 -55z"/>
        <path d="M3570 1075 l0 -55 365 0 365 0 0 55 0 55 -365 0 -365 0 0 -55z"/>
    </g>
</svg>
